<svg viewBox="0 0 320 89.06281260427707" height="89.06281260427707" width="320" xmlns="http://www.w3.org/2000/svg"
  style="width: 320px; height: 89.0628px; z-index: 0; cursor: pointer;">
  <g
    transform="matrix(3.8073535237344145,0,0,3.8073535237344145,-10.530105142150866,-20.93272492711725)" fill="#ff4400">
    <path xmlns="http://www.w3.org/2000/svg"
      d="M27.86,20a5.25,5.25,0,0,1-4.09,2L14.5,22A1.5,1.5,0,0,0,13,23.48v3.27l1.08-1.62a.5.5,0,0,1,.83.55l-2,3h0a.49.49,0,0,1-.16.15h0a.45.45,0,0,1-.45,0l0,0a.49.49,0,0,1-.12-.11l0,0-2-3a.5.5,0,0,1,.83-.55L12,26.76V23.48a2.48,2.48,0,0,1,.74-1.78A2.43,2.43,0,0,1,14.51,21l9.26,0a4.26,4.26,0,0,0,3.32-1.58,4.3,4.3,0,0,0,.85-3.61,4.18,4.18,0,0,0-1.73-2.57A4.25,4.25,0,0,0,21.79,13a6.47,6.47,0,0,1-2.49,4.17.5.5,0,1,1-.6-.8,5.47,5.47,0,0,0,2.14-3.76v0a4.43,4.43,0,0,0,0-.6,5.36,5.36,0,0,0-3.5-5.12,5.56,5.56,0,0,0-5.11.66A5.48,5.48,0,0,0,10,12a.56.56,0,0,1-.15.49.52.52,0,0,1-.47.15,4.27,4.27,0,1,0-2.07,8.28l2.21,0a1.61,1.61,0,0,0,1.07-.44A1.49,1.49,0,0,0,11,19.41V16.15L9.92,17.78a.5.5,0,1,1-.83-.55l2-3,0,0a.48.48,0,0,1,.78,0l0,0,2,3a.5.5,0,1,1-.83.55L12,16.15v3.26a2.48,2.48,0,0,1-.74,1.77,2.63,2.63,0,0,1-1.78.73l-2.27,0H7.1A5.27,5.27,0,0,1,9,11.51,6.48,6.48,0,0,1,17.71,5.9a6.35,6.35,0,0,1,4.17,5.92,5.26,5.26,0,0,1,4.89.59,5.19,5.19,0,0,1,2.15,3.19A5.3,5.3,0,0,1,27.86,20Z">
    </path>
  </g>
  <g
    transform="matrix(1.0642826838482322,0,0,1.0642826838482322,117.06258157894203,16.82460654336701)" fill="#fff">
    <path
      d="M16.24 11.440000000000001 c6.0532 0 9.08 2.3466 9.08 7.04 c0 2.6933 -1.2933 4.6932 -3.88 6 c1.76 0.50668 3.0733 1.3934 3.94 2.66 s1.3 2.7934 1.3 4.58 c0 2.56 -0.92668 4.58 -2.78 6.06 s-4.2868 2.22 -7.3 2.22 l-13.84 0 l0 -28.56 l13.48 0 z M15.44 23 c2.5333 0 3.8 -1.1333 3.8 -3.4 c0 -2.1867 -1.4133 -3.28 -4.24 -3.28 l-5.96 0 l0 6.68 l6.4 0 z M15.8 35.12 c3.0667 0 4.6 -1.2533 4.6 -3.76 c0 -2.72 -1.4933 -4.08 -4.48 -4.08 l-6.88 0 l0 7.84 l6.76 0 z M36 19.32 l0 11.72 c0 1.6 0.25332 2.84 0.76 3.72 s1.4667 1.32 2.88 1.32 c1.5733 0 2.7 -0.46668 3.38 -1.4 s1.02 -2.4266 1.02 -4.48 l0 -10.88 l5.68 0 l0 20.68 l-5.4 0 l0 -2.88 l-0.12 0 c-1.4133 2.2933 -3.5333 3.44 -6.36 3.44 c-2.6933 0 -4.62 -0.68668 -5.78 -2.06 s-1.74 -3.4866 -1.74 -6.34 l0 -12.84 l5.68 0 z M66.11999999999999 18.76 c0.48 0 0.89336 0.06668 1.24 0.2 l0 5.28 c-0.61332 -0.13332 -1.2933 -0.2 -2.04 -0.2 c-3.7333 0 -5.6 2.2133 -5.6 6.64 l0 9.32 l-5.68 0 l0 -20.68 l5.4 0 l0 3.84 l0.08 0 c0.56 -1.3333 1.4467 -2.4 2.66 -3.2 s2.5266 -1.2 3.94 -1.2 z M75.8 11.440000000000001 l0 15.32 l7.16 -7.44 l6.72 0 l-7.8 7.6 l8.68 13.08 l-6.88 0 l-5.68 -9.24 l-2.2 2.12 l0 7.12 l-5.68 0 l0 -28.56 l5.68 0 z M102.48 18.76 c2.8 0 5.08 0.71328 6.84 2.14 s2.72 3.3267 2.88 5.7 l-5.56 0 c-0.37332 -2.3733 -1.7733 -3.56 -4.2 -3.56 c-1.4933 0 -2.6733 0.61332 -3.54 1.84 s-1.3 2.8534 -1.3 4.88 c0 1.9467 0.41332 3.52 1.24 4.72 s1.9867 1.8 3.48 1.8 c2.5867 0 4.0932 -1.4 4.52 -4.2 l5.48 0 c-0.37332 2.7467 -1.4333 4.8468 -3.18 6.3 s-4.0068 2.18 -6.78 2.18 c-3.0667 0 -5.5732 -0.98 -7.52 -2.94 s-2.92 -4.5132 -2.92 -7.66 c0 -3.4133 0.96 -6.1332 2.88 -8.16 s4.48 -3.04 7.68 -3.04 z M121.20000000000002 19.32 l0 11.72 c0 1.6 0.25332 2.84 0.76 3.72 s1.4667 1.32 2.88 1.32 c1.5733 0 2.7 -0.46668 3.38 -1.4 s1.02 -2.4266 1.02 -4.48 l0 -10.88 l5.68 0 l0 20.68 l-5.4 0 l0 -2.88 l-0.12 0 c-1.4133 2.2933 -3.5333 3.44 -6.36 3.44 c-2.6933 0 -4.62 -0.68668 -5.78 -2.06 s-1.74 -3.4866 -1.74 -6.34 l0 -12.84 l5.68 0 z M145.08 11.440000000000001 l0 28.56 l-5.68 0 l0 -28.56 l5.68 0 z M159.12 18.76 c1.9467 0 3.6801 0.45328 5.2 1.36 s2.7133 2.22 3.58 3.94 s1.3 3.7 1.3 5.94 c0 0.21332 -0.01332 0.56 -0.04 1.04 l-14.92 0 c0.05332 1.6533 0.48664 2.94 1.3 3.86 s2.06 1.38 3.74 1.38 c1.04 0 1.9933 -0.26 2.86 -0.78 s1.42 -1.1533 1.66 -1.9 l5 0 c-1.4667 4.64 -4.6932 6.96 -9.68 6.96 c-1.8933 -0.02668 -3.6466 -0.44 -5.26 -1.24 s-2.9 -2.0467 -3.86 -3.74 s-1.44 -3.66 -1.44 -5.9 c0 -2.1067 0.48668 -4.0268 1.46 -5.76 s2.2666 -3.0266 3.88 -3.88 s3.3533 -1.28 5.22 -1.28 z M163.48000000000002 27.439999999999998 c-0.26668 -1.5467 -0.76 -2.6667 -1.48 -3.36 s-1.7467 -1.04 -3.08 -1.04 c-1.3867 0 -2.48 0.39332 -3.28 1.18 s-1.2667 1.86 -1.4 3.22 l9.24 0 z M181 18.76 c2.7733 0 4.94 0.56004 6.5 1.68 s2.4333 2.76 2.62 4.92 l-5.4 0 c-0.08 -0.98668 -0.44 -1.7 -1.08 -2.14 s-1.5733 -0.66 -2.8 -0.66 c-1.0667 0 -1.86 0.16 -2.38 0.48 s-0.78 0.8 -0.78 1.44 c0 0.48 0.17332 0.88 0.52 1.2 s0.87336 0.6 1.58 0.84 s1.4867 0.44 2.34 0.6 c2.5867 0.50668 4.4132 1.0267 5.48 1.56 s1.8467 1.1733 2.34 1.92 s0.74 1.6667 0.74 2.76 c0 2.32 -0.84668 4.1 -2.54 5.34 s-3.9933 1.86 -6.9 1.86 c-3.04 0 -5.4068 -0.65332 -7.1 -1.96 s-2.5666 -3.08 -2.62 -5.32 l5.4 0 c0 1.0667 0.41332 1.9134 1.24 2.54 s1.8667 0.94 3.12 0.94 c1.0667 0 1.9534 -0.23332 2.66 -0.7 s1.06 -1.1134 1.06 -1.94 c0 -0.53332 -0.22 -0.97332 -0.66 -1.32 s-1.06 -0.65336 -1.86 -0.92004 s-2.04 -0.57336 -3.72 -0.92004 c-1.3333 -0.26668 -2.52 -0.62668 -3.56 -1.08 s-1.8333 -1.0466 -2.38 -1.78 s-0.82 -1.6333 -0.82 -2.7 c0 -1.36 0.32668 -2.5467 0.98 -3.56 s1.6533 -1.78 3 -2.3 s3.02 -0.78 5.02 -0.78 z">
    </path>
  </g>
</svg>